<!DOCTYPE svg PUBLIC "-//W3C//DTD SVG 20010904//EN" "http://www.w3.org/TR/2001/REC-SVG-20010904/DTD/svg10.dtd">
<svg version="1.0" xmlns="http://www.w3.org/2000/svg" width="300px" height="300px" viewBox="0 0 3000 3000" preserveAspectRatio="xMidYMid meet">
<g id="layer101" fill="#0101ff" stroke="none">
 <path d="M1385 2989 c-266 -20 -537 -119 -758 -276 -104 -74 -266 -236 -340 -340 -425 -596 -360 -1410 154 -1924 288 -288 649 -439 1054 -439 212 0 363 29 560 105 363 140 690 467 830 830 76 197 105 348 105 560 0 339 -97 626 -304 899 -305 404 -792 623 -1301 585z"/>
 </g>
<g id="layer102" fill="#fafaff" stroke="none">
 <path d="M738 1804 l4 -39 77 3 c43 2 123 -3 178 -12 105 -17 220 -19 263 -6 38 11 9 18 -100 23 -63 3 -125 13 -183 30 -48 15 -123 30 -165 33 l-78 7 4 -39z"/>
 <path d="M2140 1833 c-14 -2 -75 -17 -135 -34 -61 -16 -140 -29 -175 -30 -108 -3 -126 -15 -35 -23 57 -6 114 -3 197 9 65 10 151 16 193 13 l75 -3 0 37 0 38 -47 -1 c-27 -1 -59 -4 -73 -6z"/>
 <path d="M1456 1722 c-58 -66 -264 -145 -415 -158 -64 -6 -237 -47 -249 -59 -5 -4 114 -363 126 -383 6 -8 20 -8 57 4 28 8 96 21 152 29 110 16 170 33 248 72 112 56 116 67 113 324 l-3 204 -29 -33z"/>
 <path d="M1510 1551 c0 -235 5 -259 65 -300 61 -42 181 -81 293 -96 59 -8 129 -22 155 -31 26 -9 49 -15 51 -13 7 8 137 391 134 394 -18 14 -153 48 -228 56 -181 19 -375 92 -439 164 l-31 36 0 -210z"/>
 <path d="M1642 1731 c43 -28 194 -54 313 -53 66 0 158 -6 204 -14 46 -8 85 -13 86 -12 1 2 6 20 9 42 l7 39 -143 -8 c-260 -14 -412 -11 -473 10 -17 6 -18 5 -3 -4z"/>
 <path d="M745 1694 c4 -22 8 -40 9 -42 2 -1 45 5 97 14 59 10 116 14 154 10 89 -9 289 19 319 45 5 4 -7 5 -25 1 -43 -8 -231 -7 -418 3 l-144 8 8 -39z"/>
 <path d="M1255 1663 c-30 -8 -127 -18 -240 -23 -104 -5 -203 -13 -220 -18 -26 -8 -30 -13 -28 -41 0 -18 3 -35 6 -37 3 -3 40 6 84 19 43 14 125 30 181 36 57 6 138 23 180 37 115 38 142 58 37 27z"/>
 <path d="M1691 1671 c40 -25 177 -62 271 -72 56 -6 138 -22 181 -36 44 -13 81 -22 84 -19 3 2 6 20 6 38 2 32 1 33 -53 45 -30 6 -114 12 -187 12 -113 1 -203 12 -298 37 -16 4 -17 3 -4 -5z"/>
 </g>

</svg>